<svg width="15" height="23" viewBox="0 0 15 23" fill="none" xmlns="http://www.w3.org/2000/svg">
<path d="M7.50001 0.111328C7.81148 0.111328 8.06683 0.365277 8.06683 0.675933L8.06683 22.1248C8.06683 22.4351 7.81188 22.6894 7.5 22.6894C7.18853 22.6894 6.93318 22.4355 6.93318 22.1248L6.93318 0.675933C6.93318 0.365287 7.18852 0.111328 7.50001 0.111328Z" fill="#EAB665"/>
<path d="M7.09828 0.276591C6.87772 0.496291 6.87772 0.854975 7.09828 1.07468L13.7329 7.68331C13.9535 7.90301 14.3136 7.90301 14.5342 7.68331C14.7547 7.46361 14.7547 7.10493 14.5342 6.88523L7.89951 0.276591C7.67934 0.0568911 7.31845 0.0568911 7.09828 0.276591Z" fill="#EAB665"/>
<path d="M7.90071 0.276591C7.68014 0.0568914 7.32005 0.0568914 7.09948 0.276591L0.46483 6.88482C0.244265 7.10452 0.244265 7.46321 0.46483 7.68291C0.685394 7.90261 1.04549 7.90261 1.26606 7.68291L7.90071 1.07468C8.12127 0.854976 8.12127 0.495898 7.90071 0.276591Z" fill="#EAB665"/>
</svg>
