<svg width="21" height="23" viewBox="0 0 21 23" fill="none" xmlns="http://www.w3.org/2000/svg">
<path d="M0.516358 9.10496C0.748814 6.57934 1.95079 4.29185 3.90065 2.67104C5.85051 1.05022 8.31874 0.283025 10.8442 0.515512C13.3696 0.747999 15.6573 1.94995 17.2781 3.89981C20.4655 7.7325 20.1215 13.349 16.61 16.7716L20.7282 21.7256C20.9929 22.0467 20.9498 22.516 20.6294 22.7854C20.5257 22.8746 20.401 22.9247 20.2761 22.9461C20.0217 22.9899 19.7489 22.8987 19.5696 22.6866L15.4514 17.7327C14.2714 18.5689 12.9525 19.0956 11.5973 19.3286C8.35976 19.8851 4.91666 18.7485 2.67111 16.044C1.05104 14.0988 0.284696 11.6352 0.516383 9.10512L0.516358 9.10496ZM3.82583 15.0882C6.64681 18.4794 11.6979 18.9445 15.089 16.1234C18.48 13.3022 18.9406 8.2521 16.1248 4.86447C14.757 3.22346 12.8354 2.21096 10.7067 2.01503C9.99581 1.95152 9.29076 1.97749 8.60627 2.09516C7.24185 2.32971 5.95257 2.918 4.86166 3.82933C3.22064 5.19714 2.20814 7.11874 2.01221 9.24747C1.8155 11.3717 2.46256 13.4461 3.82571 15.0878L3.82583 15.0882Z" fill="black"/>
</svg>
